<svg xmlns="http://www.w3.org/2000/svg" width="624" height="184" fill="none"><rect width="163.9" height="28.2" x="7.2" y="21" fill="#09B87E" fill-opacity=".2" rx="8.2"/><rect width="163.9" height="28.2" x="7.2" y="21" stroke="#09B87E" stroke-width="1.5" rx="8.2"/><path fill="#09B87E" d="M40 38.6v-7.5h4.8v1h-3.6v2h1.7c.5 0 1 0 1.4.3a2 2 0 0 1 1.2 2c0 .4 0 .8-.3 1.1-.2.4-.5.6-.9.8-.4.2-.9.3-1.4.3H40Zm1.2-1h1.7l.8-.1a1.3 1.3 0 0 0 .7-1.2c0-.3-.1-.6-.4-.9-.3-.2-.6-.3-1.1-.3h-1.7v2.5Zm7.2 1.1c-.3 0-.7 0-1-.2-.2-.1-.5-.3-.6-.6-.2-.2-.3-.5-.3-.9 0-.3 0-.6.2-.8l.5-.5.7-.2.8-.2h.8l.5-.2.1-.3c0-.3 0-.6-.3-.8l-.8-.2c-.3 0-.6 0-.8.2l-.5.6-1-.3A2 2 0 0 1 48 33a3.2 3.2 0 0 1 1.7 0l.8.2.5.6c.2.3.2.6.2 1v3.8h-1v-.8H50c0 .2-.2.3-.3.5l-.6.3-.8.1Zm.3-.9.7-.1a1.3 1.3 0 0 0 .7-1.1v-.8l-.2.1-.4.1a46.5 46.5 0 0 1-1.3.3 1 1 0 0 0-.4.3c-.2 0-.2.2-.2.4 0 .3.1.5.3.6.2.2.5.2.8.2Zm3.7-.7h1l.4.5c.2.2.4.2.8.2.3 0 .5 0 .8-.2.2-.1.3-.3.3-.6l-.1-.5-.4-.3h-1.5v-1h1l.7-.1.2-.6c0-.2 0-.4-.2-.5a1 1 0 0 0-.7-.3c-.3 0-.6.1-.8.3-.2 0-.3.3-.3.5h-1.1l.3-.9.7-.5c.4-.2.7-.2 1.1-.2.4 0 .8 0 1.1.2.3.1.6.3.7.5.2.3.3.5.3.9 0 .3-.1.5-.3.7-.2.2-.4.4-.7.4v.1c.2 0 .4 0 .6.2.1.1.3.3.3.5l.2.6c0 .4-.1.7-.3 1-.2.2-.4.4-.8.5a3 3 0 0 1-1.1.2 3 3 0 0 1-1.2-.2l-.7-.5-.3-.9Zm8 1.6c-.6 0-1-.1-1.5-.3-.4-.3-.7-.6-.9-1-.2-.5-.3-1-.3-1.6 0-.6 0-1.1.3-1.5a2.5 2.5 0 0 1 2.3-1.4c.5 0 1 0 1.4.3l1 1c.1.5.3 1 .3 1.6 0 .6-.2 1.1-.4 1.5a2.5 2.5 0 0 1-2.3 1.4Zm0-.9c.3 0 .5 0 .8-.3l.5-.7.1-1-.1-1-.5-.7c-.3-.2-.5-.3-.9-.3-.3 0-.6 0-.8.3-.3.2-.4.4-.5.7a3 3 0 0 0-.2 1c0 .4 0 .7.2 1 0 .3.2.5.5.7.2.2.5.3.8.3Zm3.8.8V33h2.3c.7 0 1.2.2 1.6.5.3.2.5.6.5 1s0 .7-.3.8c-.2.2-.5.4-.8.4l.7.3c.2 0 .3.2.5.5l.2.7a1.4 1.4 0 0 1-1 1.3l-1 .2h-2.7Zm1-1H67l.6-.1c.2-.1.3-.3.3-.5a1 1 0 0 0-.3-.7.9.9 0 0 0-.6-.2h-1.7v1.6Zm0-2.3h1.9l.3-.3.1-.4c0-.2 0-.4-.2-.5-.2-.2-.5-.2-.8-.2h-1.3v1.4Zm5.7-.4h1.6c.7 0 1.3.2 1.6.5.4.4.6.8.6 1.3 0 .4 0 .7-.3 1-.1.3-.4.5-.7.7l-1.2.2h-2.4V33h1v4.8h1.4c.4 0 .6-.1.8-.3l.3-.6c0-.3 0-.5-.3-.7-.2-.2-.4-.3-.8-.3H71v-1Zm4.6 3.7V33h1.1v5.7h-1.1Zm3.7-1.5 2.5-4.2h1.1v5.7h-1v-4.1l-2.5 4.1H78V33h1v4.2Zm2-6h.9c0 .3-.2.7-.4 1-.3.2-.7.3-1.2.3s-1-.1-1.2-.4c-.3-.2-.5-.6-.5-1h1l.1.5c.1.2.3.2.6.2.2 0 .4 0 .5-.2l.2-.5Zm8.3 7.6c-.6 0-1-.1-1.5-.4-.3-.2-.7-.5-.9-1-.2-.4-.3-1-.3-1.5 0-.6.1-1 .3-1.5.3-.5.6-.8 1-1 .4-.3.8-.4 1.4-.4.4 0 .8 0 1.1.2l.8.7.4 1h-1l-.5-.7c-.2-.2-.5-.3-.8-.3-.3 0-.6 0-.8.2l-.6.7-.2 1 .2 1.1c.1.3.3.6.6.7.2.2.5.3.8.3l.5-.1.5-.4.2-.5h1c0 .4 0 .7-.3 1a2 2 0 0 1-.8.7l-1.1.2Zm4.5-1.6 2.5-4.2h1.2v5.7h-1v-4.1l-2.5 4.1H93V33h1v4.2Zm9-1.8v1h-3v-1h3Zm-2.7-2.4v5.7h-1V33h1Zm3.5 0v5.7h-1V33h1Zm.8 1v-1h4.8v1h-1.9v4.7h-1V34h-2Zm7.3 4.8c-.3 0-.7 0-1-.2-.2-.1-.5-.3-.6-.6-.2-.2-.3-.5-.3-.9 0-.3 0-.6.2-.8l.5-.5.7-.2.8-.2a1396.5 1396.5 0 0 0 1.3-.2l.1-.3c0-.3 0-.6-.3-.8l-.8-.2c-.3 0-.6 0-.8.2-.3.2-.4.4-.5.6l-1-.3a2 2 0 0 1 1.3-1.3 3.2 3.2 0 0 1 1.7 0l.7.2.6.6.2 1v3.8h-1v-.8h-.1c0 .2-.2.3-.3.5l-.6.3-.8.1Zm.3-.9.7-.1a1.3 1.3 0 0 0 .7-1.1v-.8l-.2.1-.4.1a41.2 41.2 0 0 1-1.3.3 1 1 0 0 0-.5.3l-.1.4c0 .3 0 .5.3.6.2.2.4.2.8.2Zm4 .8V33h1v2.4h.6l1.9-2.4h1.3l-2.1 2.8 2.2 3h-1.4l-1.7-2.4h-.7v2.3h-1.1Zm7.9.1c-.6 0-1-.1-1.4-.4-.4-.2-.7-.5-1-1-.2-.4-.3-1-.3-1.5 0-.6.1-1 .4-1.5.2-.5.5-.8.9-1 .4-.3.8-.4 1.4-.4.4 0 .8 0 1.1.2.4.2.6.4.8.7.2.3.4.6.4 1h-1l-.5-.7c-.2-.2-.5-.3-.8-.3-.3 0-.6 0-.8.2l-.6.7-.1 1 .1 1.1c.2.3.3.6.6.7.2.2.5.3.8.3l.6-.1.4-.4.2-.5h1.1c0 .4-.2.7-.4 1a2 2 0 0 1-.8.7l-1.1.2Zm4.6-1.6 2.5-4.2h1.1v5.7h-1v-4.1l-2.5 4.1h-1.2V33h1v4.2Zm7.5 1.6c-.5 0-1-.1-1.4-.4-.4-.2-.7-.5-1-1l-.2-1.5c0-.6 0-1 .3-1.5.2-.5.5-.8 1-1 .3-.3.8-.4 1.3-.4.4 0 .8 0 1.2.2l.8.7c.2.3.3.6.3 1h-1c0-.3-.2-.5-.4-.7-.2-.2-.5-.3-.9-.3-.3 0-.6 0-.8.2l-.5.7-.2 1c0 .5 0 .8.2 1.1.1.3.3.6.5.7.2.2.5.3.8.3l.6-.1.4-.4.3-.5h1c0 .4-.1.7-.3 1a2 2 0 0 1-.8.7l-1.2.2Z"/><rect width="212.1" height="28.2" x="406.7" y="1.7" fill="#09B87E" fill-opacity=".2" rx="8.2"/><rect width="212.1" height="28.2" x="406.7" y="1.7" stroke="#09B87E" stroke-width="1.5" rx="8.2"/><path fill="#09B87E" d="M471.4 11.8v7.5h-1.2v-6.5h-3.5v6.5h-1.2v-7.5h5.9Zm1.6 9.7v-7.8h1.1v.9l.4-.4c0-.2.3-.3.5-.4l.8-.2a2.2 2.2 0 0 1 2 1.3c.3.5.4 1 .4 1.6 0 .6-.1 1.1-.3 1.6a2.2 2.2 0 0 1-2.1 1.3l-.8-.1-.5-.4a3 3 0 0 1-.3-.5v3H473Zm1.1-5c0 .4 0 .7.2 1 0 .3.3.6.5.7.2.2.5.3.8.3.3 0 .6 0 .8-.3.2-.1.4-.4.5-.7l.2-1c0-.4 0-.7-.2-1l-.5-.7c-.2-.2-.5-.3-.8-.3-.3 0-.6.1-.8.3-.2.1-.4.4-.5.7l-.2 1Zm6.4 1.3 2.5-4.1h1.2v5.6h-1v-4l-2.6 4h-1.2v-5.6h1.1v4Zm5.2 1.5v-5.6h2.3c.7 0 1.2.1 1.5.4.4.2.6.6.6 1s-.1.7-.3.9c-.2.2-.5.3-.9.4.3 0 .5 0 .7.2.3.1.4.3.5.5.2.2.2.4.2.7a1.4 1.4 0 0 1-.9 1.3c-.3.2-.6.2-1 .2h-2.7Zm1-.9h1.7c.3 0 .5 0 .6-.2.2-.1.3-.3.3-.5 0-.3-.1-.5-.3-.6a.9.9 0 0 0-.6-.3h-1.7v1.6Zm0-2.4h1.9l.3-.3.1-.4c0-.2 0-.4-.2-.5l-.8-.2h-1.3V16Zm7.3 3.4c-.6 0-1 0-1.4-.3-.4-.3-.8-.6-1-1-.2-.5-.3-1-.3-1.6l.3-1.5a2 2 0 0 1 1-1c.3-.3.8-.4 1.3-.4.3 0 .6 0 1 .2a2.2 2.2 0 0 1 1.3 1.3c.2.4.2.8.2 1.3v.4H492V16h3.4l-.1-.8a1.3 1.3 0 0 0-1.3-.7c-.3 0-.6 0-.8.2l-.5.6-.2.8v.7c0 .3 0 .7.2 1 .1.2.3.4.6.5.2.2.5.2.8.2h.6l.4-.3.3-.5 1 .2c0 .3-.2.6-.4.8l-.8.6a3 3 0 0 1-1.1.1Zm3 1.6v-2.6h.6l.3-.4.2-.5.1-.8.1-1 .2-2h3.8v4.7h1V21H502v-1.7h-4V21h-1Zm1.7-2.6h2.6v-3.8h-1.8l-.1 1.2-.3 1.5c0 .5-.2.8-.4 1Zm8 1c-.5 0-1 0-1.4-.3l-1-1c-.2-.5-.3-1-.3-1.6 0-.5.1-1 .4-1.5.2-.4.5-.8.9-1a2 2 0 0 1 1.3-.4c.4 0 .7 0 1 .2a2.3 2.3 0 0 1 1.3 1.3c.2.4.3.8.3 1.3v.4h-4.5V16h3.4c0-.3 0-.5-.2-.8a1.3 1.3 0 0 0-1.2-.7c-.4 0-.6 0-.9.2l-.5.6-.2.8v.7l.2 1 .6.5c.2.2.5.2.8.2h.6l.5-.3.2-.5 1 .2c0 .3-.1.6-.4.8l-.8.6a3 3 0 0 1-1 .1Zm7.5-3.4v1h-3v-1h3Zm-2.7-2.3v5.6h-1.1v-5.6h1Zm3.5 0v5.6h-1v-5.6h1Zm2.5 4 2.5-4h1.2v5.6h-1v-4l-2.5 4h-1.2v-5.6h1v4Zm7.6 1.7c-.5 0-1 0-1.4-.3l-1-1-.2-1.6c0-.5 0-1 .3-1.5.2-.4.5-.8.9-1 .4-.3.8-.4 1.4-.4.3 0 .6 0 .9.2a2.2 2.2 0 0 1 1.4 1.3l.2 1.3v.4H523V16h3.4c0-.3 0-.5-.2-.8a1.3 1.3 0 0 0-1.2-.7c-.3 0-.6 0-.8.2l-.6.6-.2.8v.7l.2 1 .6.5c.3.2.5.2.9.2h.5l.5-.3.3-.5 1 .2c0 .3-.2.6-.4.8l-.9.6a3 3 0 0 1-1 .1Zm6.1-4.8v-1h4.8v1h-1.8v4.7H533v-4.7h-1.9Zm7 3.2 2.5-4.1h1.2v5.6h-1v-4l-2.5 4h-1.2v-5.6h1v4Zm5.2 1.5v-5.6h4.6v5.6h-1v-4.7h-2.5v4.7h-1Zm8.5.1c-.5 0-1 0-1.4-.3l-1-1-.2-1.6c0-.6 0-1 .3-1.5a2.5 2.5 0 0 1 2.3-1.4c.5 0 1 .1 1.4.4.4.2.7.5 1 1l.2 1.5c0 .6 0 1.1-.3 1.6a2.5 2.5 0 0 1-2.3 1.3Zm0-.9c.3 0 .6 0 .9-.3.2-.1.3-.4.5-.7l.1-1-.1-1-.5-.7-.9-.3-.9.3-.5.7a3 3 0 0 0-.1 1l.1 1c.1.3.3.6.5.7l.9.3Zm3.9.8v-5.6h2.3c.6 0 1.2.1 1.5.4.4.2.6.6.6 1s-.1.7-.3.9c-.2.2-.5.3-.9.4.3 0 .5 0 .7.2l.5.5c.2.2.2.4.2.7 0 .3 0 .6-.2.8l-.7.5c-.3.2-.6.2-1 .2h-2.7Zm1-.9h1.7c.2 0 .5 0 .6-.2.2-.1.2-.3.2-.5 0-.3 0-.5-.2-.6a.9.9 0 0 0-.6-.3h-1.7v1.6Zm0-2.4h1.9l.3-.3.1-.4c0-.2 0-.4-.3-.5l-.7-.2h-1.3V16Z"/><rect width="212.1" height="28.2" x="406.7" y="72.9" fill="#09B87E" fill-opacity=".2" rx="8.2"/><rect width="212.1" height="28.2" x="406.7" y="72.9" stroke="#09B87E" stroke-width="1.5" rx="8.2"/><path fill="#09B87E" d="M458.6 90.5V83h2.7c.6 0 1 0 1.3.2a1.8 1.8 0 0 1 1.1 1.7c0 .4 0 .6-.2.8 0 .3-.2.4-.4.6a2 2 0 0 1-.7.2v.1c.3 0 .5.1.8.3l.6.6.2 1c0 .4-.1.7-.3 1-.2.3-.4.6-.8.7-.4.2-.9.3-1.5.3h-2.8Zm1-1h1.7c.6 0 1 0 1.2-.3.2-.2.4-.5.4-.8a1.2 1.2 0 0 0-.7-1.1l-.8-.2h-1.7v2.4Zm0-3.3h1.6l.7-.1.5-.4.2-.7a1 1 0 0 0-.3-.8c-.3-.2-.6-.3-1-.3h-1.6v2.3Zm8 4.4c-.5 0-1-.1-1.4-.3-.4-.3-.7-.6-.9-1a4.1 4.1 0 0 1 0-3.1c.2-.5.5-.8 1-1 .3-.3.8-.4 1.3-.4s.8 0 1.2.2l.8.7.4 1h-1.1c0-.3-.2-.5-.4-.7-.2-.2-.5-.3-.9-.3-.3 0-.5 0-.8.2l-.5.7-.2 1c0 .5 0 .8.2 1.1.1.3.3.6.5.7.3.2.5.3.8.3l.6-.1.4-.4c.2-.1.2-.3.3-.5h1a2 2 0 0 1-1 1.7l-1.3.2Zm3.1-4.8v-1h4.8v1h-1.9v4.7h-1v-4.7h-1.9Zm6 6.8v-7.8h1v1h.1c0-.2.2-.3.3-.4l.5-.4c.2-.2.5-.2.9-.2a2.2 2.2 0 0 1 2 1.3c.2.5.3 1 .3 1.6 0 .6 0 1.1-.3 1.6l-.8 1-1.2.3c-.4 0-.7 0-.9-.2-.2 0-.4-.2-.5-.4l-.3-.4v3h-1.1Zm1-5 .2 1.1c.1.3.3.6.5.7.2.2.5.3.8.3.3 0 .6-.1.8-.3.3-.2.4-.4.5-.7.2-.3.2-.6.2-1s0-.7-.2-1c0-.3-.2-.6-.5-.7-.2-.2-.5-.3-.8-.3-.3 0-.6 0-.8.3l-.5.6-.2 1Zm7.7 3c-.5 0-1-.1-1.3-.3l-1-1a4.1 4.1 0 0 1 0-3.1 2.5 2.5 0 0 1 2.3-1.4c.6 0 1 .1 1.4.3l1 1a4.1 4.1 0 0 1 0 3.1 2.5 2.5 0 0 1-2.4 1.4Zm0-.9c.4 0 .7 0 1-.3l.4-.7.2-1c0-.4 0-.7-.2-1l-.5-.7c-.2-.2-.5-.3-.8-.3-.4 0-.7 0-1 .3l-.4.7a3 3 0 0 0-.2 1c0 .4 0 .7.2 1l.5.7c.2.2.5.3.9.3Zm6.4 1c-.6 0-1-.2-1.5-.4l-1-1-.2-1.6c0-.6 0-1 .3-1.5.2-.5.5-.8.9-1 .4-.3.9-.4 1.4-.4l1 .1a2.2 2.2 0 0 1 1.3 1.4l.2 1.3v.4h-4.5v-.8h3.4c0-.3 0-.6-.2-.8a1.3 1.3 0 0 0-1.2-.7c-.3 0-.6 0-.8.2l-.6.6-.1.8v.6c0 .4 0 .7.2 1 .1.3.3.5.5.6l.9.2h.5l.5-.3.3-.5 1 .2c0 .3-.2.6-.4.8l-.8.5a3 3 0 0 1-1.1.2Zm7.4-3.5v1h-3v-1h3Zm-2.7-2.4v5.7h-1v-5.7h1Zm3.5 0v5.7h-1v-5.7h1Zm5.3 2.4v1h-3v-1h3Zm-2.7-2.4v5.7h-1.1v-5.7h1Zm3.5 0v5.7h-1v-5.7h1Zm2.3 2h1.7c.6 0 1.2.2 1.5.5.4.4.6.8.6 1.3 0 .4 0 .7-.2 1l-.8.7-1.1.2h-2.5v-5.7h1v4.8h1.4c.4 0 .6-.1.8-.3l.3-.6c0-.3 0-.5-.3-.7-.2-.2-.4-.3-.8-.3h-1.6v-1Zm4.6 3.7v-5.7h1.1v5.7h-1Zm5 .1c-.5 0-1-.1-1.4-.3l-1-1c-.2-.5-.3-1-.3-1.6 0-.6.1-1 .4-1.5.2-.5.5-.8.9-1 .4-.3.8-.4 1.4-.4l.9.1a2.3 2.3 0 0 1 1.4 1.4l.2 1.3v.4H516v-.8h3.4c0-.3 0-.6-.2-.8a1.3 1.3 0 0 0-1.2-.7c-.3 0-.6 0-.8.2l-.6.6-.2.8v.6l.2 1 .6.6.8.2h.6l.5-.3c0-.2.2-.3.3-.5l1 .2c0 .3-.2.6-.5.8-.2.2-.4.4-.8.5a3 3 0 0 1-1 .2Zm8.9 1.8V83h1v9.4h-1Zm0-1.8c-.4 0-.8 0-1.1-.2-.4-.1-.6-.3-.9-.6a2 2 0 0 1-.5-.9c-.2-.4-.2-.8-.2-1.2 0-.4 0-.8.2-1.2l.5-1c.3-.2.5-.4.9-.5.3-.2.7-.2 1-.2h.3v5.8h-.2Zm0-.9h.1v-4h-.1a1.4 1.4 0 0 0-1.2.6 2 2 0 0 0-.3.6 3 3 0 0 0 0 1.8l.6.7c.2.2.5.3.9.3Zm1 1h-.2v-6h.3c.4 0 .7.1 1 .3.4.1.7.3 1 .6l.5 1 .2 1.1-.2 1.2c-.2.4-.3.7-.6 1l-.8.5c-.4.2-.7.2-1.1.2Zm0-1c.3 0 .6 0 .8-.2.2 0 .3-.2.5-.4l.2-.6a3 3 0 0 0 0-1.8l-.5-.7c-.3-.2-.6-.3-1-.3v4Zm4.5 3a2.3 2.3 0 0 1-.8-.2l.3-.9h.5l.5-.1.3-.5.1-.4-2-5.8h1.1l1.5 4.4 1.5-4.4h1.1l-2.3 6.5-.4.7-.6.5a2 2 0 0 1-.8.1Zm9-5.5v1h-3v-1h3Zm-2.7-2.4v5.7h-1.1v-5.7h1Zm3.5 0v5.7H541v-5.7h1Zm1.5 5.7v-5.7h1v2.4h.6l1.9-2.4h1.3l-2.2 2.8 2.2 3h-1.3l-1.7-2.4h-.7v2.3h-1.1Zm10.3-5.7v4.8h.9v2.7h-1.1v-1.8h-4.4v-5.7h1v4.8h2.5v-4.8h1.1Zm3.2 4.2 2.4-4.2h1.2v5.7h-1v-4.1l-2.5 4.1H556v-5.7h1V89Zm6.2 0 2.5-4.2h1.2v5.7H566v-4.1l-2.5 4.1h-1.2v-5.7h1.1V89Z"/><rect width="212.1" height="28.2" x="406.7" y="37.3" fill="#09B87E" fill-opacity=".2" rx="8.2"/><rect width="212.1" height="28.2" x="406.7" y="37.3" stroke="#09B87E" stroke-width="1.5" rx="8.2"/><path fill="#09B87E" d="M481.4 47.4h1.1v5.5h.1l3.9-5.5h1v7.5h-1.1v-5.5h-.1l-3.8 5.5h-1v-7.5Zm10 7.6c-.5 0-1 0-1.3-.3l-1-1c-.2-.5-.3-1-.3-1.6 0-.6.1-1 .4-1.5.2-.5.5-.8.9-1 .4-.3.8-.4 1.4-.4.4 0 .8 0 1.1.2l.8.7c.2.3.4.6.4 1h-1l-.5-.7c-.2-.2-.5-.3-.8-.3-.3 0-.6 0-.8.3-.3.1-.4.3-.6.6l-.2 1 .2 1.2.6.7.8.2.5-.1c.2 0 .4-.2.5-.3l.2-.6h1a2 2 0 0 1-1 1.7c-.4.2-.8.2-1.2.2Zm3.6 0v-5.7h1v2.3h.6l1.9-2.3h1.3l-2.2 2.7 2.3 3h-1.4l-1.7-2.3h-.7v2.2H495Zm5.3 0v-1h.2l.4-.1.2-.4.2-.7v-1l.2-2.5h4v5.6h-1.2v-4.7h-1.8l-.1 2-.1 1.2-.4.8c0 .3-.3.4-.5.6l-.8.1h-.3Zm9.4-3.3v1h-3v-1h3Zm-2-2.4v5.6h-1.2v-5.6h1.1Zm3.8 5.7c-.6 0-1 0-1.4-.3l-1-1c-.1-.5-.3-1-.3-1.6 0-.6.2-1 .4-1.5a2.4 2.4 0 0 1 2.3-1.4c.5 0 1 .1 1.3.4.4.2.7.5 1 1 .2.4.3 1 .3 1.5 0 .6-.1 1.1-.3 1.5a2.5 2.5 0 0 1-2.3 1.4Zm0-1c.3 0 .6 0 .8-.2.3-.2.4-.4.5-.7.2-.3.2-.6.2-1s0-.7-.2-1c0-.3-.2-.5-.5-.7-.2-.2-.5-.3-.8-.3-.4 0-.7.1-1 .3l-.4.7a3 3 0 0 0-.2 1c0 .4 0 .7.2 1l.5.7c.2.2.5.3.9.3Zm8.4-4.7v5.6h-1v-5.6h1Zm-.4 2.6v1a5.3 5.3 0 0 1-1.2.2h-.6c-.7 0-1.3 0-1.7-.4-.4-.4-.6-.9-.6-1.6v-1.9h1v1.9l.2.6.4.4.7.1h.9l.9-.3Zm4.3 3.1c-.5 0-1 0-1.4-.3l-1-1c-.1-.5-.3-1-.3-1.6 0-.6.2-1 .4-1.5s.5-.8.9-1c.4-.3.8-.4 1.4-.4l.9.1a2.2 2.2 0 0 1 1.4 1.4l.2 1.3v.4h-4.5v-.8h3.4c0-.3 0-.6-.2-.8a1.3 1.3 0 0 0-1.2-.7c-.3 0-.6 0-.8.2l-.6.6-.2.8v.6l.2 1 .6.6c.2.2.5.2.9.2h.5l.5-.3c0-.2.2-.3.3-.5l1 .2c0 .3-.2.6-.5.8-.2.2-.4.4-.8.5a3 3 0 0 1-1 .2Zm7.5-3.4v1h-3v-1h3Zm-2.7-2.3v5.6h-1.1v-5.6h1Zm3.5 0v5.6h-1v-5.6h1Zm2.6 4 2.4-4h1.2v5.6h-1v-4.1l-2.5 4.1h-1.2v-5.6h1v4Zm8.5 1.6v-4.7h-1.4c-.3 0-.5 0-.7.2l-.3.6c0 .3.1.4.3.6l.7.2h1.7v.9h-1.7c-.5 0-.8 0-1.1-.2-.3-.1-.6-.3-.7-.6l-.3-.9c0-.4.1-.7.3-1l.7-.5c.3-.2.7-.2 1.1-.2h2.4v5.6h-1Zm-3.7 0 1.6-2.8h1.1l-1.6 2.8h-1.1Z"/><rect width="60.2" height="28.2" x="406.7" y="108.5" fill="#09B87E" fill-opacity=".2" rx="8.2"/><rect width="60.2" height="28.2" x="406.7" y="108.5" stroke="#09B87E" stroke-width="1.5" rx="8.2"/><path fill="#09B87E" d="M425 121h-1a1.8 1.8 0 0 0-.7-1.1 2 2 0 0 0-.6-.3 2.3 2.3 0 0 0-1.8.2c-.4.2-.7.6-.9 1l-.2 1.5c0 .6 0 1.2.3 1.6.1.4.4.7.8 1 .3.2.7.3 1.1.3l.7-.1.6-.3a1.8 1.8 0 0 0 .7-1.1h1.1c0 .3-.1.7-.3 1a2.8 2.8 0 0 1-1.6 1.3l-1.2.2a3.3 3.3 0 0 1-3-1.8c-.2-.6-.4-1.3-.4-2 0-.9.2-1.6.5-2.2a3.2 3.2 0 0 1 3-1.8l1 .2a3 3 0 0 1 1.7 1.3c.2.3.3.7.3 1.1Zm1.3 5.1v-5.7h4.6v5.7h-1v-4.7h-2.5v4.7h-1Zm7.2-1.5 2.5-4.2h1.2v5.7H436V122l-2.5 4.1h-1.2v-5.7h1v4.2Zm7.5 1.6c-.5 0-1-.1-1.4-.4-.4-.2-.7-.6-.9-1-.2-.4-.3-1-.3-1.5 0-.6.1-1 .3-1.5.2-.5.5-.8 1-1 .3-.3.8-.4 1.3-.4s.8 0 1.2.2l.8.7.4 1h-1.1c0-.3-.2-.5-.4-.7-.2-.2-.5-.3-.9-.3-.3 0-.5 0-.8.2l-.5.7-.2 1c0 .5 0 .8.2 1.1.1.3.3.6.5.7.3.2.5.3.8.3l.6-.1.4-.4c.2-.1.2-.3.3-.5h1a2 2 0 0 1-1.1 1.7l-1.2.2Zm3.5-.1v-5.7h1.1v2.4h.6l1.8-2.4h1.4l-2.2 2.8 2.2 2.9h-1.3l-1.7-2.3h-.8v2.3h-1Zm6.9-1.5 2.5-4.2h1.1v5.7h-1V122l-2.5 4.1h-1.2v-5.7h1v4.2Z"/><rect width="68.2" height="28.2" x="470.3" y="108.5" fill="#09B87E" fill-opacity=".2" rx="8.2"/><rect width="68.2" height="28.2" x="470.3" y="108.5" stroke="#09B87E" stroke-width="1.5" rx="8.2"/><path fill="#09B87E" d="m487.1 126.1-2.5-3.4h-.8v3.4h-1.1v-7.5h1.1v3.1h.4l2.8-3.1h1.4l-3 3.3 3.1 4.2h-1.4Zm4.4.1c-.6 0-1-.1-1.4-.4-.4-.2-.7-.5-1-1-.2-.4-.3-1-.3-1.5 0-.6.1-1.1.4-1.5a2.5 2.5 0 0 1 2.3-1.4c.5 0 1 0 1.4.3.4.3.7.6.9 1a4.1 4.1 0 0 1 0 3.1 2.5 2.5 0 0 1-2.3 1.4Zm0-1c.3 0 .6 0 .8-.2.3-.2.4-.4.5-.7l.2-1c0-.4 0-.7-.2-1 0-.3-.2-.6-.5-.7-.2-.2-.5-.3-.8-.3-.4 0-.7 0-.9.3-.2.1-.4.4-.5.7a3 3 0 0 0-.2 1l.2 1 .5.7c.2.2.5.3.9.3Zm3.8 3v-7.8h1.1v1h.1c0-.2.2-.3.3-.5l.5-.4.8-.1a2.2 2.2 0 0 1 2.1 1.3c.2.4.3 1 .3 1.6 0 .6 0 1.1-.3 1.6l-.8 1c-.4.2-.8.3-1.3.3-.3 0-.6 0-.8-.2-.2 0-.4-.2-.5-.4l-.3-.4v3h-1.2Zm1.1-5c0 .5 0 .8.2 1.1l.5.7c.2.2.5.3.8.3.3 0 .6-.1.8-.3l.5-.7.2-1c0-.4 0-.7-.2-1 0-.3-.3-.6-.5-.7-.2-.2-.5-.3-.8-.3a1.3 1.3 0 0 0-1.3 1l-.2 1Zm4.7-1.8v-1h4.7v1H504v4.7h-1v-4.7h-2Zm8 4.8c-.5 0-1-.1-1.4-.3-.4-.3-.7-.6-.9-1a4.1 4.1 0 0 1 0-3.1c.2-.5.5-.8 1-1 .3-.3.8-.4 1.3-.4l1 .1a2.2 2.2 0 0 1 1.3 1.4l.2 1.3v.4h-4.5v-.8h3.4l-.1-.8a1.3 1.3 0 0 0-1.3-.7c-.3 0-.6 0-.8.2-.2.2-.4.3-.5.6-.2.2-.2.5-.2.8v.6c0 .4 0 .7.2 1 .1.3.3.5.6.6l.8.2h.6l.4-.4.3-.4 1 .2c0 .3-.2.6-.4.8l-.8.5a3 3 0 0 1-1.1.2Zm3.2-.1 2.2-2.9-2.1-2.8h1.3l1.7 2.4h.4v-2.4h1.1v2.4h.4l1.7-2.4h1.3l-2.1 2.8 2.1 2.9H519l-1.7-2.4h-.4v2.4h-1.1v-2.4h-.4l-1.7 2.4h-1.4Zm10.2-1.5 2.5-4.2h1.2v5.7h-1V122l-2.5 4.1h-1.2v-5.7h1v4.2Z"/><rect width="78.5" height="27.5" x="539.7" y="108.8" fill="#09B87E" fill-opacity=".2" rx="8.2"/><rect width="78.5" height="27.5" x="539.7" y="108.8" stroke="#09B87E" stroke-width="1.5" rx="8.2"/><path fill="#09B87E" d="M550.2 118.5h1.4l2.4 5.8 2.5-5.8h1.4v7.5h-1.1v-5.4l-2.3 5.4h-1l-2.1-5.4h-.1v5.4h-1.1v-7.5Zm13 4.2v1h-3v-1h3Zm-2.7-2.3v5.6h-1v-5.6h1Zm3.5 0v5.6h-1v-5.6h1Zm3.9 5.7c-.5 0-1 0-1.4-.3l-1-1-.2-1.6c0-.6 0-1 .3-1.5a2.5 2.5 0 0 1 2.3-1.4c.5 0 1 .1 1.4.3l1 1 .2 1.6c0 .6 0 1.1-.3 1.5a2.5 2.5 0 0 1-2.3 1.4Zm0-.9c.3 0 .6 0 .9-.3.2-.1.4-.4.5-.7l.1-1-.1-1-.5-.7-.9-.3-.9.3-.5.7a3 3 0 0 0-.1 1l.1 1c.1.3.3.6.5.7l.9.3Zm3.3.8 2.2-2.9-2.2-2.7h1.3l1.7 2.3h.4v-2.3h1.1v2.3h.4l1.8-2.3h1.3L577 123l2.2 3h-1.3l-1.8-2.4h-.4v2.3h-1v-2.3h-.4l-1.8 2.3h-1.3Zm11.3.1c-.5 0-1 0-1.4-.3l-1-1c-.2-.5-.3-1-.3-1.6 0-.6.1-1 .4-1.5.2-.5.5-.8.9-1a2 2 0 0 1 1.3-.4l1 .1a2.3 2.3 0 0 1 1.3 1.4c.2.4.3.8.3 1.3v.4h-4.6v-.8h3.5c0-.3 0-.6-.2-.8a1.3 1.3 0 0 0-1.2-.7c-.4 0-.6 0-.9.2l-.5.6-.2.8v.6c0 .4 0 .7.2 1 .2.3.3.5.6.6.2.2.5.2.8.2h.6l.4-.3c.2-.2.3-.3.3-.5l1 .2c0 .3-.2.6-.4.8l-.8.5a3 3 0 0 1-1 .2Zm6 0c-.5 0-1 0-1.4-.3-.4-.3-.7-.6-.9-1a4.1 4.1 0 0 1 0-3.1c.3-.5.6-.8 1-1 .3-.3.8-.4 1.3-.4s.9 0 1.2.2l.8.7.4 1h-1l-.5-.7c-.2-.2-.5-.3-.8-.3-.3 0-.6 0-.8.3-.3.1-.4.3-.6.6l-.2 1 .2 1.2c.1.3.3.5.6.7l.8.2.5-.1c.2 0 .3-.2.5-.3l.2-.6h1a2 2 0 0 1-1 1.7c-.4.2-.8.2-1.2.2Zm3.1-4.8v-1h4.8v1h-1.8v4.7h-1.1v-4.7h-1.9Zm6 4.7v-5.6h2.3c.7 0 1.2 0 1.5.4.4.2.6.6.6 1s-.1.7-.3.9c-.2.2-.5.3-.9.3.3 0 .5.2.7.3.3.1.4.3.6.5l.1.7c0 .3 0 .6-.2.8-.1.2-.4.4-.7.5-.3.2-.6.2-1 .2h-2.7Zm1-.9h1.7c.3 0 .5 0 .6-.2.2-.1.3-.3.3-.5 0-.3-.1-.5-.3-.6a.9.9 0 0 0-.6-.3h-1.7v1.6Zm0-2.4h1.9l.3-.3.1-.4c0-.2 0-.4-.2-.5l-.8-.2h-1.3v1.4Zm6.5 3.4c-.4 0-.7 0-1-.2-.3 0-.5-.3-.7-.5l-.2-1c0-.3 0-.6.2-.8l.5-.5.7-.2.8-.2a206.6 206.6 0 0 1 1.2-.2l.2-.3c0-.3-.1-.6-.3-.8l-.8-.2c-.4 0-.6 0-.9.2l-.4.6-1-.3a2 2 0 0 1 1.3-1.3 3.2 3.2 0 0 1 1.7 0c.3 0 .5.1.7.3.3 0 .4.3.6.6l.2 1v3.7h-1v-.8h-.1a1.6 1.6 0 0 1-.9.8l-.8.1Zm.2-.8.8-.2a1.3 1.3 0 0 0 .7-1.1v-.8l-.2.2h-.4l-.4.1h-.4l-.6.2a1 1 0 0 0-.4.3l-.1.4c0 .3 0 .5.3.7l.7.2Z"/><rect width="212.1" height="28.2" x="406.7" y="144.1" fill="#09B87E" fill-opacity=".2" rx="8.2"/><rect width="212.1" height="28.2" x="406.7" y="144.1" stroke="#09B87E" stroke-width="1.5" rx="8.2"/><path fill="#09B87E" d="M497.6 156.6h-1.1a1.8 1.8 0 0 0-1.3-1.4 2.3 2.3 0 0 0-1.9.2 2 2 0 0 0-.8 1 4.1 4.1 0 0 0 0 3.1l.8 1 1.2.3.7-.1a2 2 0 0 0 1-.8l.3-.6h1.1l-.3 1a2.8 2.8 0 0 1-1.6 1.3l-1.2.2a3.3 3.3 0 0 1-3-1.8c-.2-.6-.4-1.3-.4-2 0-.9.2-1.6.4-2.2a3.2 3.2 0 0 1 3-1.8c.4 0 .8 0 1.1.2a3 3 0 0 1 1.6 1.3c.2.3.4.7.4 1.1Zm.8 5v-.9h.6l.3-.4.2-.7v-1l.1-2.6h4v5.7h-1V157h-2v1.9c0 .5 0 .9-.2 1.2 0 .4-.1.7-.3.9l-.5.5-.8.2h-.4Zm9 .2c-.5 0-1-.1-1.3-.4-.4-.2-.7-.5-1-1a4.1 4.1 0 0 1 0-3.1 2.5 2.5 0 0 1 2.4-1.3c.5 0 1 0 1.3.3l1 1a4.1 4.1 0 0 1 0 3.1 2.5 2.5 0 0 1-2.3 1.4Zm0-1c.4 0 .7 0 1-.2l.4-.7.2-1c0-.4 0-.7-.2-1-.1-.3-.3-.6-.5-.7-.2-.2-.5-.3-.8-.3-.4 0-.7 0-1 .3l-.4.7a3 3 0 0 0-.2 1c0 .3 0 .7.2 1l.5.7c.2.2.5.3.9.3Zm4 .9V156h2.3c.6 0 1.1.2 1.5.4.4.3.5.7.5 1.1 0 .4 0 .6-.3.8-.2.2-.5.4-.8.4l.7.2.5.5.2.8a1.4 1.4 0 0 1-1 1.3l-1 .2h-2.7Zm1-1h1.6l.7-.1.2-.6c0-.2 0-.4-.2-.6a.9.9 0 0 0-.7-.2h-1.6v1.6Zm0-2.3h1.3l.5-.1c.2 0 .3-.1.4-.3v-.3c0-.3 0-.4-.2-.6l-.7-.1h-1.3v1.4Zm6.4 3.4c-.3 0-.6 0-1-.2l-.6-.6c-.2-.2-.3-.5-.3-1l.2-.7.5-.5.7-.3.8-.1.8-.1.5-.1.1-.3c0-.4 0-.6-.2-.8-.2-.2-.5-.3-.8-.3-.4 0-.7.1-1 .3l-.4.5-1-.2a2 2 0 0 1 1.4-1.3 3.2 3.2 0 0 1 1.7 0c.2 0 .5 0 .7.2l.5.6c.2.3.2.6.2 1v3.8h-1v-.8l-.4.4-.5.4-.9.1Zm.3-.9c.3 0 .6 0 .8-.2a1.3 1.3 0 0 0 .6-1v-.8l-.2.1-.4.1h-.4l-.3.1c-.2 0-.4 0-.6.2a1 1 0 0 0-.4.2l-.2.5c0 .3.1.5.3.6.2.2.5.2.8.2Zm4 3V156h1v1h.2c0-.2.1-.3.3-.5 0-.1.2-.3.5-.4l.8-.1a2.2 2.2 0 0 1 2 1.3c.3.4.4 1 .4 1.6 0 .6-.1 1.1-.3 1.5-.2.5-.5.8-.9 1-.3.3-.7.4-1.2.4-.3 0-.6 0-.8-.2-.2 0-.4-.2-.5-.4a3 3 0 0 1-.3-.4v3H523Zm1-5c0 .4.1.7.3 1 0 .3.2.5.5.7.2.2.5.3.8.3.3 0 .6-.1.8-.3l.5-.7.2-1c0-.4 0-.8-.2-1l-.5-.8-.8-.2a1.3 1.3 0 0 0-1.3 1c-.2.2-.2.6-.2 1Zm6.5 1.2 2.5-4h1.2v5.6h-1.1v-4.1l-2.5 4h-1.2V156h1.1v4.1Z"/><rect width="72.7" height="28.2" x="238" y="72.9" fill="#9747FF" fill-opacity=".2" rx="8.2"/><rect width="72.7" height="28.2" x="238" y="72.9" stroke="#9747FF" stroke-width="1.5" rx="8.2"/><path fill="#B352FF" d="M261.6 86.7c0 .8-.1 1.5-.4 2.1a3 3 0 0 1-1.2 1.3c-.5.4-1.1.5-1.8.5-.6 0-1.2-.1-1.7-.5-.5-.3-1-.7-1.2-1.3-.3-.6-.5-1.3-.5-2 0-.9.2-1.6.5-2.1a3.2 3.2 0 0 1 3-1.8c.6 0 1.2.1 1.7.4.5.3.9.8 1.2 1.4.3.5.4 1.2.4 2Zm-1 0c0-.6-.2-1.1-.4-1.5-.2-.4-.5-.8-.8-1-.3-.2-.7-.3-1.2-.3a2.1 2.1 0 0 0-2 1.3l-.2 1.5c0 .6 0 1.2.3 1.6.2.4.4.7.8 1 .3.2.7.3 1.1.3.5 0 .9-.1 1.2-.4.3-.2.6-.5.8-1 .2-.3.3-.9.3-1.5Zm4.8 4c-.6 0-1-.2-1.5-.4-.4-.3-.7-.6-.9-1a4.1 4.1 0 0 1 0-3.1c.3-.5.6-.8 1-1 .3-.3.8-.4 1.3-.4s.9 0 1.2.2l.8.7.4 1h-1l-.5-.7c-.2-.2-.5-.3-.8-.3-.3 0-.6 0-.8.2-.3.2-.5.4-.6.7l-.2 1c0 .5 0 .8.2 1.1.1.3.3.6.5.7.3.2.5.3.9.3l.5-.1.5-.4.2-.5h1a2 2 0 0 1-1 1.7l-1.2.2Zm7.3-3.5v1h-3v-1h3Zm-2.8-2.4v5.7h-1v-5.7h1Zm3.6 0v5.7h-1.1v-5.7h1Zm3.8 5.8c-.5 0-1-.1-1.4-.3-.4-.3-.7-.6-.9-1a4.1 4.1 0 0 1 0-3.1 2.5 2.5 0 0 1 2.3-1.4c.6 0 1 .1 1.4.3l1 1c.2.5.3 1 .3 1.6 0 .6-.1 1.1-.4 1.5a2.5 2.5 0 0 1-2.3 1.4Zm0-.9c.4 0 .7 0 .9-.3l.5-.7.2-1-.2-1-.5-.7c-.2-.2-.5-.3-.9-.3-.3 0-.6 0-.8.3-.3.2-.4.4-.5.7a3 3 0 0 0-.2 1c0 .4 0 .7.2 1 0 .3.2.5.5.7.2.2.5.3.8.3Zm3.9.8v-5.7h2.3c.7 0 1.2.2 1.6.5.3.2.5.6.5 1s0 .7-.3.8c-.2.2-.5.4-.8.4l.7.3c.2 0 .3.2.5.5l.2.7a1.4 1.4 0 0 1-1 1.3l-1 .2h-2.7Zm1-1h1.7l.6-.1c.2-.1.3-.3.3-.5a1 1 0 0 0-.3-.7.9.9 0 0 0-.6-.2h-1.7v1.6Zm0-2.3h1.9l.3-.3.1-.4c0-.2 0-.4-.2-.5-.2-.2-.4-.2-.8-.2h-1.3v1.4Zm5.7-.4h1.6c.7 0 1.3.2 1.6.5.4.4.6.8.6 1.3 0 .4 0 .7-.2 1l-.8.7-1.2.2h-2.4v-5.7h1v4.8h1.4c.4 0 .6-.1.8-.3l.3-.6c0-.3 0-.5-.3-.7-.2-.2-.4-.3-.8-.3H288v-1Zm4.6 3.7v-5.7h1.1v5.7h-1Z"/><rect width="72.7" height="28.2" x="238" y="1.7" fill="#9747FF" fill-opacity=".2" rx="8.2"/><rect width="72.7" height="28.2" x="238" y="1.7" stroke="#9747FF" stroke-width="1.5" rx="8.2"/><path fill="#B352FF" d="M257.5 19.3v-7.5h2.7c.6 0 1 0 1.5.3.4.2.7.5.8.9.2.3.3.8.3 1.2 0 .5 0 1-.3 1.3l-.8.9a3 3 0 0 1-1.5.3h-1.8v-1h1.7c.4 0 .7 0 1-.2l.4-.5.2-.8c0-.3 0-.5-.2-.7 0-.3-.3-.4-.5-.6a2 2 0 0 0-.9-.1h-1.4v6.5h-1.2Zm7.3 2.2a2.3 2.3 0 0 1-.8-.2l.3-.9.5.1c.2 0 .3 0 .4-.2.2 0 .3-.3.4-.5l.1-.4-2-5.7h1.1l1.4 4.4h.1l1.4-4.4h1.2l-2.3 6.4-.4.7-.6.5a2 2 0 0 1-.8.2Zm7.8-7.8v.9h-3v-1h3Zm-2.3-1.4h1.1v5.4l.1.4.3.3h.7l.2.9h-.3a2.2 2.2 0 0 1-1.2 0c-.3-.2-.5-.3-.6-.6-.2-.2-.3-.5-.3-.8v-5.6ZM275 16v3.3h-1v-7.5h1v2.8h.1c.1-.3.3-.6.6-.7a2 2 0 0 1 1-.3c.5 0 .8 0 1 .2.4.2.6.4.8.7l.2 1.2v3.6h-1V16c0-.5-.2-.8-.4-1-.2-.2-.5-.4-.9-.4l-.7.2-.5.5-.2.8Zm7.6 3.4c-.6 0-1 0-1.4-.3l-1-1c-.2-.5-.3-1-.3-1.6 0-.6.1-1 .4-1.5a2.5 2.5 0 0 1 2.3-1.4c.5 0 1 .1 1.4.4.4.2.7.5.9 1a4.1 4.1 0 0 1 0 3.1 2.5 2.5 0 0 1-2.3 1.3Zm0-.9c.3 0 .6 0 .8-.3.3-.1.4-.4.5-.7l.2-1c0-.3 0-.7-.2-1 0-.3-.2-.5-.5-.7-.2-.2-.5-.3-.8-.3-.4 0-.7.1-.9.3l-.5.7a3 3 0 0 0-.2 1l.2 1c.1.3.3.6.5.7.2.2.5.3.9.3Zm5-2.5v3.3h-1.2v-5.6h1.1v.9c.2-.3.4-.6.7-.7a2 2 0 0 1 1-.3c.4 0 .8 0 1 .2.3.2.6.4.7.8.2.3.3.7.3 1.1v3.6H290V16c0-.4-.1-.8-.4-1-.2-.2-.5-.4-.8-.4l-.7.2-.5.5-.2.8Z"/><rect width="119.2" height="40.4" x="214.9" y="142.6" fill="#9747FF" fill-opacity=".2" rx="8.2"/><rect width="119.2" height="40.4" x="214.9" y="142.6" stroke="#9747FF" stroke-width="1.5" rx="8.2"/><path fill="#B352FF" d="M233.6 153.7h-1.2a1.7 1.7 0 0 0-.7-1.1 2 2 0 0 0-.5-.3 2.3 2.3 0 0 0-1.9.2c-.3.2-.6.6-.8 1-.2.4-.3 1-.3 1.5 0 .6.1 1.2.3 1.6l.8 1c.4.2.7.3 1.2.3l.6-.1a2 2 0 0 0 1-.8l.3-.6h1.2a3 3 0 0 1-1 1.8 3 3 0 0 1-1 .5c-.3.2-.7.2-1.1.2-.7 0-1.3-.1-1.8-.5a3 3 0 0 1-1.2-1.3c-.3-.6-.4-1.3-.4-2 0-.9.1-1.6.4-2.1a3.2 3.2 0 0 1 3-1.8l1 .1a3 3 0 0 1 1.7 1.3l.4 1.1Zm1 .4v-1h4.7v1h-1.8v4.7h-1.1v-4.7h-1.9Zm5.9 6.8v-7.8h1v1h.2l.2-.4.5-.4c.2-.2.5-.2.9-.2a2.2 2.2 0 0 1 2 1.3c.3.5.4 1 .4 1.6a3 3 0 0 1-.4 1.6c-.2.4-.4.7-.8 1-.3.2-.8.3-1.2.3-.4 0-.6 0-.9-.2-.2 0-.3-.2-.5-.4a3 3 0 0 1-.3-.4v3h-1.1Zm1-5 .2 1.1c.2.3.3.6.5.7.3.2.5.3.8.3.4 0 .6-.1.9-.3l.5-.7.1-1-.1-1c-.1-.3-.3-.6-.5-.7-.3-.2-.5-.3-.9-.3-.3 0-.6 0-.8.3l-.5.6-.1 1Zm5.9 5a2.3 2.3 0 0 1-.8 0l.3-1h.5l.5-.1.3-.5.1-.4-2-5.8h1.1l1.5 4.4 1.5-4.4h1.1l-2.3 6.5-.4.7-.6.5a2 2 0 0 1-.8.1Zm5.2-2V153h1v2.4h.6l1.9-2.4h1.3l-2.2 2.8 2.3 3H256l-1.7-2.4h-.7v2.3h-1.1Zm5.4-4.8v-1h4.8v1h-1.9v4.7h-1v-4.7H258Zm6.6 6.8a2.3 2.3 0 0 1-.7 0l.3-1h.5l.4-.1.3-.5.2-.4-2.1-5.8h1.2l1.4 4.4 1.5-4.4h1.2l-2.3 6.5-.5.7a1 1 0 0 1-.6.5 2 2 0 0 1-.8.1Zm5.2 0v-7.8h1.1v1h.1c0-.2.2-.3.3-.4 0-.2.3-.3.5-.4.2-.2.5-.2.8-.2a2.2 2.2 0 0 1 2 1.3c.3.5.4 1 .4 1.6 0 .6-.1 1.1-.3 1.6l-.8 1c-.4.2-.8.3-1.3.3-.3 0-.6 0-.8-.2-.2 0-.4-.2-.5-.4a3 3 0 0 1-.3-.4v3h-1.2Zm1.1-5c0 .5 0 .8.2 1.1.1.3.3.6.5.7.2.2.5.3.8.3.3 0 .6-.1.8-.3l.5-.7.2-1c0-.4 0-.7-.2-1 0-.3-.3-.6-.5-.7-.2-.2-.5-.3-.8-.3-.3 0-.6 0-.8.3l-.5.6-.2 1Zm7 3c-.4 0-.7 0-1-.2l-.7-.5-.2-1c0-.3 0-.6.2-.8 0-.2.2-.3.5-.5l.7-.2.7-.2a206.6 206.6 0 0 1 1.3-.2l.2-.3c0-.3-.1-.6-.3-.8l-.8-.2c-.4 0-.7 0-.9.2l-.4.6-1-.3a2 2 0 0 1 1.3-1.3 3.2 3.2 0 0 1 1.7 0l.7.2.6.6.2 1v3.8h-1.1v-.8l-.4.5-.5.3-.8.1Zm.2-.8.8-.2a1.3 1.3 0 0 0 .7-1.1v-.8l-.3.1a3.6 3.6 0 0 1-.7.2h-.4l-.6.2a1 1 0 0 0-.4.3l-.1.4c0 .3 0 .5.3.6.2.2.4.3.7.3Zm6.2 2.3V158h.5l.3-.4.2-.6.2-.7v-1l.2-2h3.9v4.7h.9v2.5h-1.1v-1.6h-4v1.6h-1Zm1.7-2.5h2.5V154h-1.8v1.2l-.3 1.5c0 .4-.2.8-.4 1Zm7.2 1c-.4 0-.7 0-1-.2l-.7-.5-.2-1c0-.3 0-.6.2-.8 0-.2.2-.3.4-.5l.8-.2.7-.2a206.6 206.6 0 0 1 1.3-.2l.2-.3c0-.3-.1-.6-.3-.8l-.8-.2c-.4 0-.7 0-.9.2l-.4.6-1-.3a2 2 0 0 1 1.3-1.3 3.2 3.2 0 0 1 1.7 0l.7.2.6.6.2 1v3.8h-1.1v-.8l-.4.5-.5.3-.8.1Zm.2-.8.8-.2a1.3 1.3 0 0 0 .7-1.1v-.8l-.3.1a3.6 3.6 0 0 1-.8.2h-.3l-.6.2a1 1 0 0 0-.4.3l-.2.4c0 .3.1.5.3.6.3.2.5.3.8.3Zm7.9-2.6v1h-3v-1h3Zm-2.8-2.4v5.7h-1v-5.7h1Zm3.6 0v5.7H301v-5.7h1Zm5.3 2.4v1h-3.1v-1h3Zm-2.8-2.4v5.7h-1v-5.7h1Zm3.5 0v5.7h-1v-5.7h1Zm2.3 2h1.7c.7 0 1.2.2 1.6.5.4.4.5.8.5 1.3 0 .4 0 .7-.2 1l-.7.7-1.2.2h-2.5v-5.7h1v4.8h1.5c.3 0 .6-.1.8-.3l.3-.6a1 1 0 0 0-.3-.7c-.2-.2-.5-.3-.8-.3h-1.7v-1Zm4.6 3.7v-5.7h1.1v5.7h-1Zm3.5-5.7 1.2 2.3 1.3-2.3h1.2l-1.8 2.9 1.8 2.8H321l-1.3-2.1-1.2 2.1h-1.2l1.7-2.8-1.7-2.9h1.2Zm-75 19.2 2.6-4.2h1.1v5.7h-1v-4.1l-2.5 4.1h-1.2v-5.7h1v4.2Zm9.6 1.6c-.3 0-.7 0-1-.2l-.6-.5c-.2-.3-.3-.6-.3-1 0-.3 0-.6.2-.8l.5-.5.7-.2.8-.2a227.2 227.2 0 0 1 1.3-.2l.1-.3c0-.3 0-.6-.3-.8l-.8-.2c-.3 0-.6 0-.8.2-.3.2-.4.4-.5.6l-1-.3a2 2 0 0 1 1.3-1.3 3.2 3.2 0 0 1 1.7 0l.8.2.5.6.2 1v3.8h-1v-.8h-.1c0 .2-.2.3-.3.5l-.6.3-.8.1Zm.3-.8.7-.2.5-.5c.2-.2.2-.4.2-.6v-.8l-.2.1a3.6 3.6 0 0 1-.8.2h-.4l-.5.2a1 1 0 0 0-.5.3l-.1.4c0 .3 0 .5.3.6.2.2.4.3.8.3Zm3.5.7v-1h.6l.3-.4.2-.7v-1l.1-2.6h4v5.7H261v-4.7h-1.8l-.1 2-.2 1.1c0 .4-.2.7-.3 1l-.5.4c-.2.2-.5.2-.8.2h-.4Zm10.3-5.7v1h-2.6v4.7h-1v-5.7h3.6Zm3.3 5.8c-.6 0-1-.1-1.4-.3l-1-1a4.1 4.1 0 0 1 0-3.1 2.5 2.5 0 0 1 2.4-1.4c.5 0 1 0 1.4.3.3.3.7.6.9 1a4.1 4.1 0 0 1 0 3.1 2.5 2.5 0 0 1-2.3 1.4Zm0-.9c.3 0 .6 0 .8-.3l.5-.7.2-1c0-.4 0-.7-.2-1 0-.3-.3-.5-.5-.7-.2-.2-.5-.3-.8-.3-.4 0-.7 0-.9.3l-.5.7a3 3 0 0 0-.2 1c0 .4 0 .7.2 1l.5.7c.2.2.5.3.9.3Zm3.8 3v-8h1.1v1h.1c0-.2.2-.3.3-.4 0-.2.3-.3.5-.4.2-.2.5-.2.8-.2a2.2 2.2 0 0 1 2 1.3c.3.5.4 1 .4 1.6 0 .6-.1 1.1-.3 1.6l-.8 1c-.4.2-.8.3-1.3.3-.3 0-.6 0-.8-.2-.2 0-.4-.2-.5-.4a3 3 0 0 1-.3-.4v3h-1.2Zm1.1-5c0 .4 0 .7.2 1 .1.3.3.6.5.7.2.2.5.3.8.3.3 0 .6-.1.8-.3l.5-.7.2-1c0-.4 0-.7-.2-1 0-.3-.3-.6-.5-.7-.2-.2-.5-.3-.8-.3-.3 0-.6 0-.8.3l-.5.6-.2 1Zm6.4 1.3 2.5-4.2h1.2v5.7h-1v-4.1l-2.6 4.1h-1.2v-5.7h1.1v4.2Zm4.5-3.2v-1h4.8v1h-1.9v4.7h-1v-4.7h-2Zm9.1 3.3 1.8-4.3h1l-2.4 5.7h-.8l-2.3-5.7h1l1.7 4.3Zm-2.1-4.3v5.7h-1v-5.7h1Zm4.2 5.7v-5.7h1.1v5.7h-1Zm3.4-3.7h1.6c.7 0 1.3.2 1.6.5.4.4.6.8.6 1.3 0 .4 0 .7-.2 1l-.8.7-1.2.2h-2.4v-5.7h1v4.8h1.4c.4 0 .6-.1.8-.3l.3-.6c0-.3 0-.5-.3-.7-.2-.2-.4-.3-.8-.3H301v-1Zm4.6 3.7v-5.7h1.1v5.7h-1Z"/><rect width="163.9" height="28.2" x="7.2" y="56.6" fill="#09B87E" fill-opacity=".2" rx="8.2"/><rect width="163.9" height="28.2" x="7.2" y="56.6" stroke="#09B87E" stroke-width="1.5" rx="8.2"/><path fill="#09B87E" d="M23.1 66.6v7.6h-1v-6.6h-3.6v6.6h-1.2v-7.6h5.8Zm4.1 7.7c-.5 0-1-.1-1.4-.3l-1-1c-.1-.5-.3-1-.3-1.6 0-.6.2-1 .4-1.5s.5-.8.9-1c.4-.3.8-.4 1.4-.4l.9.1a2.2 2.2 0 0 1 1.4 1.4l.2 1.3v.4h-4.5v-.8h3.4c0-.3 0-.6-.2-.8a1.3 1.3 0 0 0-1.2-.7c-.3 0-.6 0-.8.2l-.6.6-.2.8v.6l.2 1 .6.6.9.2h.5l.5-.4.3-.4 1 .2c0 .3-.2.6-.4.8-.3.2-.5.4-.9.5a3 3 0 0 1-1 .2Zm3.7 2v-7.8h1v1h.2l.2-.5.5-.4.9-.1a2.2 2.2 0 0 1 2 1.3c.3.4.4 1 .4 1.6 0 .6-.1 1.1-.3 1.6-.2.4-.5.7-.9 1-.3.2-.7.3-1.2.3-.3 0-.6 0-.8-.2-.3 0-.4-.2-.6-.4a3 3 0 0 1-.2-.4H32v3h-1.1Zm1-5 .2 1.1.6.7c.2.2.4.3.8.3.3 0 .6-.1.8-.3l.5-.7.2-1-.2-1c-.1-.3-.3-.6-.5-.7-.2-.2-.5-.3-.8-.3-.4 0-.6 0-.9.2l-.5.7-.1 1Zm7.8 3c-.5 0-1-.1-1.4-.3l-1-1c-.1-.5-.3-1-.3-1.6 0-.6.2-1 .4-1.5s.5-.8.9-1c.4-.3.8-.4 1.4-.4l.9.1A2.2 2.2 0 0 1 42 70l.2 1.3v.4h-4.5v-.8H41c0-.3 0-.6-.2-.8a1.3 1.3 0 0 0-1.2-.7c-.3 0-.6 0-.8.2l-.6.6-.2.8v.6l.2 1 .6.6.9.2h.5l.5-.4.3-.4 1 .2c0 .3-.2.6-.4.8-.3.2-.5.4-.9.5a3 3 0 0 1-1 .2Zm6.9-1.5 1.8-4.3h1L47 74.2h-.8l-2.4-5.7h1l1.8 4.3Zm-2.1-4.3v5.7h-1.1v-5.7h1Zm4.2 5.7v-5.7h1v5.7h-1Zm5 .1c-.6 0-1-.1-1.5-.3-.4-.3-.7-.6-.9-1-.2-.5-.3-1-.3-1.6 0-.6 0-1 .3-1.5.2-.5.5-.8 1-1 .3-.3.8-.4 1.3-.4l1 .1a2.2 2.2 0 0 1 1.3 1.4l.2 1.3v.4h-4.5v-.8H55V70a1.3 1.3 0 0 0-1.3-.7c-.3 0-.6 0-.8.2-.2.2-.4.3-.5.6-.2.2-.2.5-.2.8v.6c0 .4 0 .7.2 1 .1.3.3.5.5.6l.9.2h.6l.4-.4.3-.4 1 .2c0 .3-.2.6-.4.8l-.8.5a3 3 0 0 1-1.1.2Zm7.5-3.4v1H58v-1h3Zm-2.8-2.4v5.7h-1v-5.7h1Zm3.5 0v5.7h-1v-5.7h1Zm5.4 2.4v1h-3.1v-1h3Zm-2.8-2.4v5.7h-1v-5.7h1Zm3.5 0v5.7h-1v-5.7h1Zm2.3 2H72c.7 0 1.2.2 1.6.5.3.3.5.8.5 1.3 0 .4 0 .7-.2 1-.2.3-.4.5-.8.7l-1.1.2h-2.5v-5.7h1v4.7H72c.3 0 .5 0 .8-.2l.3-.6a1 1 0 0 0-.3-.7c-.3-.2-.5-.3-.8-.3h-1.7v-1Zm4.6 3.7v-5.7H76v5.7h-1Zm5 .1c-.5 0-1-.1-1.4-.3l-1-1-.2-1.6c0-.6 0-1 .3-1.5.2-.5.5-.8.9-1 .4-.3.9-.4 1.4-.4l1 .1a2.3 2.3 0 0 1 1.3 1.4l.2 1.3v.4h-4.5v-.8h3.4c0-.3 0-.6-.2-.8a1.3 1.3 0 0 0-1.2-.7c-.3 0-.6 0-.8.2l-.6.6-.1.8v.6c0 .4 0 .7.2 1 0 .3.3.5.5.6l.9.2h.5l.5-.4.3-.4 1 .2c0 .3-.2.6-.4.8l-.8.5a3 3 0 0 1-1.1.2Zm7.5-1.6 2.5-4.2h1.2v5.7h-1v-4.1l-2.5 4.1h-1.2v-5.7h1v4.2Zm7.6-3.2v-1h4.8v1H98v4.7h-1.1v-4.7H95Zm7 3.2 2.5-4.2h1.2v5.7h-1v-4.1l-2.5 4.1H101v-5.7h1v4.2Zm5.2 1.5v-5.7h4.6v5.7h-1v-4.7h-2.5v4.7h-1Zm7-3.7h1.6c.7 0 1.2.2 1.6.5.4.3.5.8.5 1.3 0 .4 0 .7-.2 1l-.7.7-1.2.2h-2.5v-5.7h1v4.7h1.5c.3 0 .6 0 .8-.2l.3-.6a1 1 0 0 0-.3-.7c-.2-.2-.5-.3-.8-.3H114v-1Zm4.5 3.7v-5.7h1.2v5.7h-1.2Zm4.8 1.6v-2.6h.5l.3-.3.2-.6.1-.7.1-1 .2-2h3.9v4.6h.8v2.6h-1v-1.6h-4v1.6h-1Zm1.7-2.6h2.5v-3.7h-1.8l-.1 1.1-.2 1.6c-.1.4-.2.8-.4 1Zm7.2 1.1c-.4 0-.7 0-1-.2-.3-.1-.5-.3-.7-.6-.2-.2-.2-.5-.2-.9l.1-.8.5-.5.7-.3h.8a875.1 875.1 0 0 0 1.3-.3l.2-.3c0-.4-.1-.6-.3-.8-.2-.2-.5-.2-.8-.2-.4 0-.7 0-.9.2-.2.2-.4.3-.4.5l-1-.2a2 2 0 0 1 1.3-1.3 3.2 3.2 0 0 1 1.7 0c.2 0 .5 0 .7.2l.5.6c.2.3.3.6.3 1v3.8H134v-.8l-.4.4-.5.4-.8.1Zm.2-.9.8-.1a1.3 1.3 0 0 0 .7-1.1v-.8l-.3.1-.4.1a41.2 41.2 0 0 1-1.3.3 1 1 0 0 0-.4.2l-.2.5c0 .3.1.5.3.6.2.2.5.2.8.2Zm7.9-2.5v1h-3.1v-1h3Zm-2.8-2.4v5.7h-1v-5.7h1Zm3.5 0v5.7h-1v-5.7h1Zm5.3 2.4v1h-3v-1h3Zm-2.7-2.4v5.7h-1v-5.7h1Zm3.5 0v5.7h-1v-5.7h1Zm2.3 2h1.7c.7 0 1.2.2 1.6.5.3.3.5.8.5 1.3 0 .4 0 .7-.2 1-.2.3-.4.5-.8.7l-1.1.2h-2.5v-5.7h1v4.7h1.5c.3 0 .5 0 .7-.2.3-.2.4-.4.4-.6 0-.3-.2-.5-.4-.7a1 1 0 0 0-.7-.3h-1.7v-1Zm4.6 3.7v-5.7h1.1v5.7h-1Zm3.5-5.7 1.2 2.2 1.3-2.2h1.2l-1.8 2.9 1.8 2.8h-1.2l-1.3-2.1-1.2 2.1h-1.3l1.8-2.8-1.7-2.9h1.2Z"/><rect width="163.9" height="28.2" x="7.2" y="92.2" fill="#09B87E" fill-opacity=".2" rx="8.2"/><rect width="163.9" height="28.2" x="7.2" y="92.2" stroke="#09B87E" stroke-width="1.5" rx="8.2"/><path fill="#09B87E" d="M34.5 109.9v-1h.5l.4-.1c.2 0 .3-.2.3-.3l.2-.3.2-.3-2.7-5.7h1.2l2 4.4 1.8-4.4h1.1l-2.6 6.3-.3.7-.6.5a2 2 0 0 1-1 .2h-.5Zm7.5 0c-.6 0-1-.1-1.4-.4-.4-.2-.7-.6-1-1l-.3-1.5c0-.6.2-1.1.4-1.5.2-.5.5-.8.9-1 .4-.3.8-.4 1.4-.4.4 0 .8 0 1.1.2.4.1.6.4.8.7.3.2.4.6.4 1h-1l-.5-.7c-.2-.2-.5-.3-.8-.3-.3 0-.6 0-.8.2l-.5.7c-.2.3-.2.7-.2 1 0 .5 0 .8.2 1.1 0 .3.3.6.5.7.2.2.5.3.8.3l.6-.1.4-.4.2-.5h1.1c0 .4-.1.7-.3 1a2 2 0 0 1-.8.7l-1.2.2Zm3-.1v-1h.6l.3-.4.2-.7v-1l.1-2.6h4v5.7h-1V105h-2v1.9c0 .5 0 .9-.2 1.2 0 .4-.1.7-.3.9l-.5.5-.8.2H45Zm9 .1c-.5 0-1-.1-1.3-.4-.4-.2-.7-.5-1-1a4.1 4.1 0 0 1 0-3.1 2.5 2.5 0 0 1 2.4-1.3c.5 0 1 0 1.3.3l1 1a4.1 4.1 0 0 1 0 3.1A2.5 2.5 0 0 1 54 110Zm0-1c.4 0 .7 0 1-.2l.4-.7.2-1c0-.4 0-.7-.2-1l-.5-.8-.8-.2c-.4 0-.7 0-1 .3l-.4.7a3 3 0 0 0-.2 1c0 .3 0 .7.2 1l.5.7c.2.2.5.3.9.3Zm4 .9V104h2.3c.6 0 1.1.2 1.5.4.4.3.5.7.5 1.1 0 .4 0 .6-.3.8l-.8.4.7.2.5.5.2.8a1.4 1.4 0 0 1-1 1.3l-1 .2H58Zm1-1h1.6l.7-.1.2-.6c0-.2 0-.4-.2-.6a.9.9 0 0 0-.7-.2H59v1.6Zm0-2.3h1.3l.5-.1c.2 0 .3-.1.4-.3v-.3c0-.3 0-.4-.2-.6l-.7-.1H59v1.4Zm8.6 0v1h-3v-1h3ZM65 104v5.7h-1.1V104h1Zm3.5 0v5.7h-1V104h1Zm2.3 2h1.7c.6 0 1.2.1 1.6.5.3.3.5.8.5 1.3 0 .4 0 .7-.2 1-.2.3-.4.5-.8.6a2 2 0 0 1-1.1.3H70V104h1v4.7h1.5c.3 0 .5 0 .7-.2l.3-.6c0-.3 0-.5-.3-.7a1 1 0 0 0-.7-.3h-1.7v-1Zm4.6 3.7V104h1.1v5.7h-1Zm5 .1c-.5 0-1-.1-1.4-.4-.4-.2-.7-.5-1-1l-.3-1.5c0-.6.2-1.1.4-1.5.2-.5.5-.8.9-1 .4-.3.8-.4 1.4-.4l.9.1a2.2 2.2 0 0 1 1.4 1.4l.2 1.3v.4h-4.5v-.8h3.4c0-.3 0-.6-.2-.8a1.3 1.3 0 0 0-1.2-.7c-.3 0-.6 0-.8.2-.3.1-.4.3-.6.6l-.2.8v.6l.2 1 .6.6.9.2.5-.1c.2 0 .3-.1.5-.3l.3-.4 1 .2c0 .3-.2.5-.4.8-.3.2-.5.4-.9.5a3 3 0 0 1-1 .2Zm6.4-.1V104h2.4c.6 0 1.1.2 1.5.4.4.3.6.7.6 1.1 0 .4-.1.6-.3.8l-.9.4.7.2.5.5.2.8a1.4 1.4 0 0 1-.9 1.3l-1 .2h-2.8Zm1-1h1.7l.7-.1.2-.6c0-.2 0-.4-.2-.6a.9.9 0 0 0-.7-.2h-1.6v1.6Zm0-2.3h1.4l.5-.1c.2 0 .3-.1.4-.3l.1-.3c0-.3 0-.4-.3-.6l-.7-.1h-1.3v1.4Zm5.8-.4H95c.7 0 1.2.1 1.6.5.4.3.6.8.6 1.3 0 .4-.1.7-.3 1-.2.3-.4.5-.7.6-.4.2-.7.3-1.2.3h-2.5V104h1.1v4.7H95c.3 0 .6 0 .8-.2l.3-.6a1 1 0 0 0-.3-.7c-.2-.2-.5-.3-.8-.3h-1.6v-1Zm4.6 3.7V104h1v5.7h-1Zm2.5 2.1V104h1.1v1h.1c0-.2.2-.3.3-.5l.5-.4.8-.1a2.2 2.2 0 0 1 2.1 1.3c.2.4.3 1 .3 1.6 0 .6 0 1.1-.3 1.5a2 2 0 0 1-.8 1 2 2 0 0 1-1.3.4c-.3 0-.6 0-.8-.2-.2 0-.4-.2-.5-.4a3 3 0 0 1-.3-.4v3h-1.2Zm1.1-5c0 .5 0 .8.2 1.1l.5.7c.2.2.5.3.8.3.3 0 .6-.1.8-.3l.5-.7.2-1c0-.4 0-.8-.2-1 0-.3-.2-.6-.5-.8l-.8-.2c-.3 0-.6 0-.8.2l-.5.7-.2 1Zm7 3c-.4 0-.7 0-1-.2-.3-.1-.5-.3-.7-.6l-.2-1c0-.2 0-.5.2-.7 0-.2.3-.4.5-.5l.7-.3.8-.1a301.2 301.2 0 0 0 1.2-.2l.2-.3c0-.4-.1-.6-.3-.8-.2-.2-.4-.3-.8-.3s-.7.1-.9.3l-.4.5-1-.2a2 2 0 0 1 1.3-1.3 3.2 3.2 0 0 1 1.7 0c.3 0 .5 0 .7.2l.6.6.2 1v3.8h-1v-.8h-.1a1.6 1.6 0 0 1-.9.8l-.8.1Zm.2-.9c.3 0 .6 0 .8-.2.2 0 .4-.2.5-.4l.2-.7v-.7l-.2.1-.4.1h-.4l-.4.1c-.2 0-.4 0-.6.2a1 1 0 0 0-.4.2l-.1.5c0 .3 0 .5.3.6.2.2.4.2.7.2Zm3.7.8 2.2-3-2.2-2.7h1.3l1.8 2.4h.3V104h1.2v2.4h.3l1.8-2.4h1.3l-2.2 2.8 2.2 2.9h-1.3l-1.8-2.4h-.3v2.4H116v-2.4h-.3l-1.8 2.4h-1.3Zm11.3.1c-.5 0-1-.1-1.4-.4-.4-.2-.7-.5-1-1-.2-.4-.3-1-.3-1.5 0-.6.1-1.1.4-1.5.2-.5.5-.8.9-1 .4-.3.8-.4 1.4-.4l.9.1a2.2 2.2 0 0 1 1.4 1.4l.2 1.3v.4H122v-.8h3.4c0-.3 0-.6-.2-.8a1.3 1.3 0 0 0-1.2-.7c-.3 0-.6 0-.8.2-.3.1-.5.3-.6.6l-.2.8v.6l.2 1 .6.6.8.2.6-.1c.2 0 .3-.1.5-.3l.2-.4 1 .2c0 .3-.1.5-.4.8-.2.2-.4.4-.8.5a3 3 0 0 1-1 .2Zm7.5-3.4v1h-3v-1h3Zm-2.7-2.4v5.7h-1.1V104h1Zm3.5 0v5.7h-1V104h1Zm2.5 4.1 2.5-4h1.2v5.6h-1v-4.1l-2.5 4h-1.2V104h1v4.1Zm8.6 1.6V105H142c-.3 0-.5 0-.7.2-.2.1-.3.3-.3.6 0 .2 0 .4.3.6l.7.2h1.7v.9H142l-1.1-.2-.7-.6c-.2-.3-.3-.6-.3-1l.3-.9.7-.6 1.1-.2h2.4v5.7h-1Zm-3.7 0 1.6-2.9h1.1l-1.6 2.9h-1.1Z"/><rect width="163.9" height="28.2" x="7.2" y="127.8" fill="#09B87E" fill-opacity=".2" rx="8.2"/><rect width="163.9" height="28.2" x="7.2" y="127.8" stroke="#09B87E" stroke-width="1.5" rx="8.2"/><path fill="#09B87E" d="m79.6 144.4-.1 2.8h-1.2v-1.8h-.5v-1h1.8Zm-6.7 1v-7.6h1v6.6h3.7v-6.6h1v7.6H73Zm9-1.6 2.4-4h1.2v5.6h-1v-4.1l-2.6 4h-1.2v-5.6h1.1v4.1Zm5 1.6v-5.7h1.2v2.4h.5l1.9-2.4h1.3l-2.2 2.8 2.3 2.9h-1.4l-1.7-2.3H88v2.3h-1Zm5.4 0v-1h.6l.2-.4.2-.7v-1l.2-2.6h4v5.7h-1.2v-4.7h-1.8l-.1 1.9-.1 1.2c-.1.4-.2.7-.4.9 0 .2-.3.4-.5.5l-.8.2h-.3Zm7.4-3.7h1.7c.7 0 1.2.1 1.6.5.3.3.5.8.5 1.3 0 .4 0 .7-.2 1-.2.2-.4.5-.8.6a2 2 0 0 1-1.1.3h-2.5v-5.7h1v4.7h1.5c.3 0 .5 0 .7-.2.3-.2.4-.4.4-.7 0-.2-.2-.5-.4-.6a1 1 0 0 0-.7-.3h-1.7v-1Zm4.6 3.7v-5.7h1.1v5.7h-1Z"/><path stroke="url(#a)" stroke-linecap="square" stroke-linejoin="bevel" stroke-opacity=".6" stroke-width="3" d="M171.8 70.7h19.5a8 8 0 0 1 8.1 8.2v0c0 4.5 3.7 8.1 8.2 8.1h29.6"/><path stroke="url(#b)" stroke-linecap="square" stroke-linejoin="bevel" stroke-opacity=".6" stroke-width="3" d="M171.8 35.1h17.7a24 24 0 0 1 24 24v4.2A23.7 23.7 0 0 0 237.2 87v0"/><path stroke="url(#c)" stroke-linecap="square" stroke-linejoin="bevel" stroke-opacity=".6" stroke-width="3" d="M406 15.8h-35a24 24 0 0 0-24 24V63a24 24 0 0 1-24 24h-11.6"/><path stroke="url(#d)" stroke-linecap="square" stroke-linejoin="bevel" stroke-opacity=".6" stroke-width="3" d="M406 51.4h-29.5c-9.8 0-17.8 8-17.8 17.8v0c0 9.8-8 17.8-17.8 17.8h-29.5"/><path stroke="url(#e)" stroke-linecap="square" stroke-linejoin="bevel" stroke-opacity=".4" stroke-width="3" d="M406 87h-94.6"/><path stroke="url(#f)" stroke-linecap="square" stroke-linejoin="bevel" stroke-opacity=".6" stroke-width="3" d="M406 122.6h-29.5c-9.8 0-17.8-8-17.8-17.8v0c0-9.8-8-17.8-17.8-17.8h-29.5"/><path stroke="url(#g)" stroke-linecap="square" stroke-linejoin="bevel" stroke-opacity=".4" stroke-width="3" d="M469.5 122.6h-1.8"/><path stroke="url(#h)" stroke-linecap="square" stroke-linejoin="bevel" stroke-opacity=".6" stroke-width="3" d="M406 158.2h-34a24 24 0 0 1-24-24V111a24 24 0 0 0-24-24h-12.6"/><path stroke="#9747FF" stroke-linecap="square" stroke-linejoin="bevel" stroke-opacity=".6" stroke-width="3" d="M274.3 30.7v41.5m0 69.7v-40"/><path stroke="url(#i)" stroke-linecap="square" stroke-linejoin="bevel" stroke-opacity=".4" stroke-width="3" d="M171.8 106.3h19.6c5.3 0 9.6-4.3 9.6-9.7v0c0-5.3 4.3-9.6 9.6-9.6h26.6"/><path stroke="url(#j)" stroke-linecap="square" stroke-linejoin="bevel" stroke-opacity=".4" stroke-width="3" d="M171.8 141.9H189a24 24 0 0 0 24-24V111c0-13.2 11-24 24.2-24v0"/><defs><linearGradient id="a" x1="163.1" x2="278.4" y1="82.2" y2="83.8" gradientUnits="userSpaceOnUse"><stop stop-color="#00B581"/><stop offset="1" stop-color="#7C1AFC"/></linearGradient><linearGradient id="b" x1="163.1" x2="278.4" y1="71.8" y2="72.3" gradientUnits="userSpaceOnUse"><stop stop-color="#00B581"/><stop offset="1" stop-color="#7C1AFC"/></linearGradient><linearGradient id="c" x1="298.9" x2="378.8" y1="66.1" y2="65.1" gradientUnits="userSpaceOnUse"><stop stop-color="#7C1AFC"/><stop offset="1" stop-color="#00B581"/></linearGradient><linearGradient id="d" x1="298.9" x2="378.7" y1="76.6" y2="74.7" gradientUnits="userSpaceOnUse"><stop stop-color="#7C1AFC"/><stop offset="1" stop-color="#00B581"/></linearGradient><linearGradient id="e" x1="298.9" x2="345.6" y1="87.7" y2="48.4" gradientUnits="userSpaceOnUse"><stop stop-color="#7C1AFC"/><stop offset="1" stop-color="#00B581"/></linearGradient><linearGradient id="f" x1="298.9" x2="378.7" y1="112.1" y2="110.3" gradientUnits="userSpaceOnUse"><stop stop-color="#7C1AFC"/><stop offset="1" stop-color="#00B581"/></linearGradient><linearGradient id="g" x1="-214117" x2="-181799" y1="17996.8" y2="17996.8" gradientUnits="userSpaceOnUse"><stop offset=".3" stop-color="#7C1AFC"/><stop offset="1" stop-color="#00B581"/></linearGradient><linearGradient id="h" x1="298.9" x2="378.8" y1="137.3" y2="136.3" gradientUnits="userSpaceOnUse"><stop stop-color="#7C1AFC"/><stop offset="1" stop-color="#00B581"/></linearGradient><linearGradient id="i" x1="144.3" x2="294.7" y1="427.4" y2="427.4" gradientUnits="userSpaceOnUse"><stop stop-color="#00B581"/><stop offset="1" stop-color="#7C1AFC"/></linearGradient><linearGradient id="j" x1="144.3" x2="317.2" y1="251.7" y2="251.7" gradientUnits="userSpaceOnUse"><stop stop-color="#00B581"/><stop offset="1" stop-color="#7C1AFC"/></linearGradient></defs></svg>