<svg width="32" height="32" fill="none" xmlns="http://www.w3.org/2000/svg"><path d="M28.85 7.676 16.775.726C16.575.6 16.3.55 16 .55c-.3 0-.575.075-.775.175l-12 6.975c-.425.25-.725.875-.725 1.35v13.925c0 .275.05.6.25.875l26.7-15.5a1.77 1.77 0 0 0-.6-.675z" fill="#9B4F96"/><path d="M2.676 23.826c.125.2.3.375.475.475l12.05 6.975c.2.125.475.175.775.175.3 0 .575-.075.775-.175l12-6.975c.425-.25.725-.875.725-1.35V9.026c0-.225-.025-.475-.15-.7l-26.65 15.5z" fill="#68217A"/><path d="M21.325 19.025a6.127 6.127 0 0 1-5.325 3.1A6.135 6.135 0 0 1 9.875 16 6.135 6.135 0 0 1 16 9.875 6.099 6.099 0 0 1 21.325 13l3.25-1.875c-1.7-2.975-4.9-5-8.575-5-5.45 0-9.875 4.425-9.875 9.875S10.55 25.875 16 25.875c3.65 0 6.85-2 8.55-4.95l-3.225-1.9zm2.925-2.475.225-1.075h-1.05V14.3H24.7l.3-1.55h1.225l-.3 1.525h.95l.3-1.525h1.2l-.3 1.525h.6v1.175h-.825l-.225 1.075h1.05V17.7H27.4l-.3 1.5h-1.225l.3-1.5h-.95l-.3 1.5h-1.2l.3-1.5h-.6v-1.175h.825v.025zm1.2 0h.95l.225-1.075h-.95l-.225 1.075z" fill="#fff"/></svg>