<svg width="32" height="32" fill="none" xmlns="http://www.w3.org/2000/svg"><path d="M15.885 2.1c-7.1 0-6.651 3.07-6.651 3.07v3.19h6.752v1H6.545S2 8.8 2 16.005s4.013 6.912 4.013 6.912H8.33v-3.36s-.13-4.014 3.9-4.014h6.762s3.772.06 3.772-3.652v-6.09s.572-3.713-6.842-3.713l-.037.012zm-3.732 2.137a1.214 1.214 0 1 1-1.183 1.244v-.02a1.214 1.214 0 0 1 1.214-1.214l-.031-.01z" fill="url(#a)"/><path d="M16.085 29.91c7.1 0 6.65-3.08 6.65-3.08v-3.18h-6.75v-1h9.47S30 23.158 30 15.995s-4.013-6.912-4.013-6.912H23.64V12.4s.13 4.013-3.9 4.013h-6.765S9.2 16.356 9.2 20.068V26.2s-.572 3.712 6.842 3.712h.04l.003-.002zm3.732-2.147A1.214 1.214 0 1 1 21 26.519v.03a1.214 1.214 0 0 1-1.214 1.214h.03z" fill="url(#b)"/><defs><linearGradient id="a" x1="4.767" y1="4.823" x2="18.054" y2="18.08" gradientUnits="userSpaceOnUse"><stop stop-color="#387EB8"/><stop offset="1" stop-color="#366994"/></linearGradient><linearGradient id="b" x1="12.627" y1="13.458" x2="27.807" y2="26.711" gradientUnits="userSpaceOnUse"><stop stop-color="#FFE052"/><stop offset="1" stop-color="#FFC331"/></linearGradient></defs></svg>